<?xml version="1.0" encoding="UTF-8"?>
<svg id="objects" xmlns="http://www.w3.org/2000/svg" version="1.1" viewBox="0 0 18 18">
  <!-- Generator: Adobe Illustrator 29.3.1, SVG Export Plug-In . SVG Version: 2.1.0 Build 151)  -->
  <defs>
    <style>
      .st0 {
        fill: #1d1d1b;
      }

      .st1 {
        fill: #fff;
      }

      .st2 {
        fill: #f4aacc;
      }
    </style>
  </defs>
  <g>
    <path class="st2" d="M9,16.08c-1.13-.62-7.62-4.42-7.62-10.36,0-2.12,1.68-3.84,3.75-3.84,1.57,0,2.98,1.01,3.52,2.51l.35.98.35-.98c.54-1.5,1.96-2.51,3.52-2.51,2.07,0,3.75,1.72,3.75,3.84,0,5.94-6.49,9.74-7.62,10.36Z"/>
    <path class="st0" d="M12.87,2.25c1.86,0,3.38,1.56,3.38,3.47,0,5.48-5.78,9.1-7.25,9.93-1.47-.83-7.25-4.45-7.25-9.93,0-1.91,1.51-3.47,3.38-3.47,1.41,0,2.68.91,3.17,2.27l.71,1.96.71-1.96c.49-1.36,1.76-2.27,3.17-2.27M12.87,1.5c-1.78,0-3.29,1.15-3.87,2.76-.58-1.61-2.1-2.76-3.87-2.76C2.85,1.5,1,3.39,1,5.72c0,6.79,8,10.78,8,10.78,0,0,8-3.99,8-10.78,0-2.33-1.85-4.22-4.13-4.22h0Z"/>
  </g>
  <ellipse class="st1" cx="14.17" cy="4.14" rx="1.03" ry="1.86" transform="translate(1.08 10.97) rotate(-43.83)"/>
</svg>